<svg width="21" height="20" viewBox="0 0 21 20" fill="none" xmlns="http://www.w3.org/2000/svg">
<path d="M19.3411 0.0985203L0.711173 8.29787C0.29186 8.48228 0.0150581 8.89382 0.000595312 9.35431C-0.0138643 9.81586 0.236076 10.244 0.64198 10.4555L4.41287 12.4236L15.6705 4.52111C15.7191 4.48777 15.78 4.4836 15.8317 4.50965C15.8833 4.53569 15.9174 4.58779 15.9194 4.64613L6.48562 13.7331C6.25117 13.9592 6.11794 14.2728 6.11794 14.5999V18.8007C6.11587 19.3372 6.46909 19.8092 6.98137 19.9551C7.49365 20.1009 8.03897 19.8832 8.31577 19.4248L10.6055 15.6449L15.4465 18.1651V18.1662C15.7687 18.3349 16.1509 18.3454 16.4824 18.1932C16.8129 18.0411 17.0566 17.7442 17.1413 17.3869L20.9669 1.47784C21.0723 1.03611 20.9215 0.573518 20.5765 0.280745C20.2326 -0.0109884 19.7543 -0.0817284 19.3411 0.0985203Z" fill="black"/>
</svg>
